# xmcd
#
# Track frame offsets:
#       150
#       26845
#       41905
#       52661
#       64556
#       81557
#       94013
#       109886
#       124193
#       144969
#       164821
#       182089
#
# Disc length: 2726 seconds
#
# Revision: 2
# Processed by: cddbd v1.5.1PL0 Copyright (c) Steve Scherf et al.
# Submitted via: MusiCat 1.1
#
DISCID=a70aa40c
DTITLE=Sheila Wilcoxson - Backwater Blues
DYEAR=1997
DGENRE=
TTITLE0=No Business
TTITLE1=Bad Sport Blues
TTITLE2=Keep Your Eyes Open
TTITLE3=Sweet Misery
TTITLE4=Louie
TTITLE5=Revival Day
TTITLE6=Honey Let Me Lay It On You
TTITLE7=Biscuit Roller
TTITLE8=Backwater Blues
TTITLE9=Testosterone Poisoning
TTITLE10=Looky, Looky Yonder/Black Betty
TTITLE11=John The Revelator
EXTD=Burnside Records\nBCD 0027 2\n
EXTT0=Whit Draper\n
EXTT1=Alan Hagar\n
EXTT2=Whit Draper\n
EXTT3=Hoyt Axton\n
EXTT4=Sheila Wilcoxson\n
EXTT5=Andy Razas\n
EXTT6=Mance Lipscomb\n
EXTT7=Whit Draper\n
EXTT8=Bessie Smith\n
EXTT9=Sheila Wilcoxson\n
EXTT10=Ledbetter/Lomax/Lomax\n
EXTT11=Traditional\n
PLAYORDER=
